<?xml version="1.0" ?><svg enable-background="new 0 0 32 32" version="1.1" viewBox="0 0 32 32" xml:space="preserve" xmlns="http://www.w3.org/2000/svg" xmlns:xlink="http://www.w3.org/1999/xlink"><g id="Filled"><g><g><polygon fill="#FFFFFF" points="4.315,1.132 23.878,1.132 27.628,4.757 27.628,30.882 3.878,30.882    "/></g><g><polygon fill="#6FD4F7" points="27.753,6.423 27.753,4.923 23.878,1.048 23.003,1.048 23.003,6.007    "/></g><g><rect fill="#DDDDDD" height="28.75" width="2.335" x="4.586" y="1.59"/></g><g><rect fill="#DDDDDD" height="2.789" width="17.068" x="5.794" y="1.132"/></g><g><path d="M23.672,2L27,5.328V30H5V2H23.672 M24.505,0H3v32h26V4.5L24.5,0C24.503,0,24.505,0,24.505,0L24.505,0z"/></g><g><polygon points="28,7.313 22,7.313 22,0.953 24,0.953 24,5.313 28,5.313    "/></g></g><g><path d="M24.125,13.937l-4.613-4.613c-0.232-0.232-0.613-0.232-0.845,0l-9.136,9.136l-0.125,5.578l5.582-0.121l9.136-9.136    C24.358,14.55,24.358,14.17,24.125,13.937z M10.966,22.484l0.131-2.343l2.212,2.212L10.966,22.484z"/></g><g><rect fill="#6FD4F7" height="2" transform="matrix(0.7071 -0.7071 0.7071 0.7071 -6.608 16.9636)" width="6.85" x="13.748" y="15.458"/></g></g></svg>